<svg xmlns="http://www.w3.org/2000/svg" xmlns:xlink="http://www.w3.org/1999/xlink" width="60.49" height="43.23" viewBox="0 0 60.49 43.23"><defs><linearGradient id="a" x1="36.25" y1="62.05" x2="36.25" y2="18.25" gradientTransform="matrix(1, 0, 0, -1, 0, 74)" gradientUnits="userSpaceOnUse"><stop offset="0" stop-color="#a50034"/><stop offset="0.01" stop-color="#a60034"/><stop offset="0.3" stop-color="#cc0034"/><stop offset="0.58" stop-color="#e80034"/><stop offset="0.82" stop-color="#f90034"/><stop offset="1" stop-color="#ff0034"/></linearGradient><linearGradient id="b" x1="29.01" y1="62.05" x2="29.01" y2="18.25" xlink:href="#a"/><linearGradient id="c" x1="43.46" y1="62.05" x2="43.46" y2="18.25" xlink:href="#a"/><linearGradient id="d" x1="20.67" y1="62.05" x2="20.67" y2="18.25" xlink:href="#a"/><linearGradient id="e" x1="20.67" y1="62.05" x2="20.67" y2="18.25" xlink:href="#a"/><linearGradient id="f" x1="51.49" y1="62.05" x2="51.49" y2="18.25" gradientTransform="matrix(1, 0, 0, -1, -6, 58.81)" xlink:href="#a"/><linearGradient id="g" x1="47.28" y1="62.05" x2="47.28" y2="18.25" gradientTransform="matrix(1, 0, 0, -1, -6, 58.81)" xlink:href="#a"/><linearGradient id="h" x1="55.74" y1="62.05" x2="55.74" y2="18.25" gradientTransform="matrix(1, 0, 0, -1, -6, 58.81)" xlink:href="#a"/><linearGradient id="i" x1="51.52" y1="62.05" x2="51.52" y2="18.25" gradientTransform="matrix(1, 0, 0, -1, -6, 58.81)" xlink:href="#a"/></defs><path d="M56.35,58.41a10.18,10.18,0,0,1-8.71-5l-4.85-8.24a2,2,0,0,0-1.66-1H31.35a2,2,0,0,0-1.66,1l-4.86,8.25A10.06,10.06,0,0,1,8.56,55a10.25,10.25,0,0,1-2.47-8.1l2-15.6c.14-.9.24-1.77.33-2.61l.12-1.06a13.85,13.85,0,0,1,22.57-9.27,7.51,7.51,0,0,0,4.74,1.78h.79a7.52,7.52,0,0,0,4.75-1.78A13.85,13.85,0,0,1,64,27.6c0,.33.07.65.11,1,.09.88.19,1.78.33,2.64l2,15.66h0A10.27,10.27,0,0,1,63.94,55,10.15,10.15,0,0,1,56.35,58.41Zm-25-17.21h9.78a4.94,4.94,0,0,1,4.24,2.44l4.85,8.25a7.16,7.16,0,0,0,6.12,3.53A7.08,7.08,0,0,0,61.65,53a7.27,7.27,0,0,0,1.75-5.75l-2-15.62c-.14-.89-.24-1.84-.34-2.73,0-.31-.07-.64-.11-1a10.94,10.94,0,0,0-10.82-9.74,10.83,10.83,0,0,0-6.86,2.47,10.53,10.53,0,0,1-6.66,2.46h-.79a10.58,10.58,0,0,1-6.65-2.46,10.85,10.85,0,0,0-17.68,7.28l-.11,1c-.1.88-.19,1.79-.34,2.71l-2,15.56A7.3,7.3,0,0,0,10.8,53a7.06,7.06,0,0,0,11.43-1.1l4.86-8.25A5,5,0,0,1,31.34,41.2Z" transform="translate(-6 -15.19)" fill="url(#a)"/><path d="M29,41a5.33,5.33,0,1,1,5.29-5.33A5.31,5.31,0,0,1,29,41Zm0-7.66a2.33,2.33,0,1,0,2.29,2.33A2.31,2.31,0,0,0,29,33.32Z" transform="translate(-6 -15.19)" fill="url(#b)"/><path d="M43.46,41a5.33,5.33,0,1,1,5.29-5.33A5.31,5.31,0,0,1,43.46,41Zm0-7.66a2.33,2.33,0,1,0,2.29,2.33A2.31,2.31,0,0,0,43.46,33.32Z" transform="translate(-6 -15.19)" fill="url(#c)"/><path d="M20.67,31.94a1.5,1.5,0,0,1-1.5-1.5V23.19a1.5,1.5,0,1,1,3,0v7.25A1.5,1.5,0,0,1,20.67,31.94Z" transform="translate(-6 -15.19)" fill="url(#d)"/><path d="M24.29,28.32H17a1.5,1.5,0,0,1,0-3h7.25a1.5,1.5,0,0,1,0,3Z" transform="translate(-6 -15.19)" fill="url(#e)"/><circle cx="45.49" cy="8.34" r="2.03" fill="url(#f)"/><circle cx="41.28" cy="12.56" r="2.03" fill="url(#g)"/><circle cx="49.74" cy="12.08" r="2.03" fill="url(#h)"/><circle cx="45.52" cy="16.3" r="2.03" fill="url(#i)"/></svg>