<svg xmlns="http://www.w3.org/2000/svg" xmlns:xlink="http://www.w3.org/1999/xlink" width="57.67" height="42.66" viewBox="0 0 57.67 42.66"><defs><linearGradient id="a" x1="36.23" y1="62.05" x2="36.23" y2="14.51" gradientTransform="matrix(1, 0, 0, -1, 0, 74)" gradientUnits="userSpaceOnUse"><stop offset="0" stop-color="#a50034"/><stop offset="1" stop-color="#ff0034"/></linearGradient><linearGradient id="b" x1="20.6" y1="62.05" x2="20.6" y2="14.51" xlink:href="#a"/><linearGradient id="c" x1="51.59" y1="62.05" x2="51.59" y2="14.51" xlink:href="#a"/><linearGradient id="d" x1="48.51" y1="62.05" x2="48.51" y2="14.51" xlink:href="#a"/><linearGradient id="e" x1="23.71" y1="62.05" x2="23.71" y2="14.51" xlink:href="#a"/><linearGradient id="f" x1="36.24" y1="62.05" x2="36.24" y2="14.51" xlink:href="#a"/></defs><path d="M43.69,58.13H28.76a2.48,2.48,0,0,1-2.48-2.48,10,10,0,0,1,19.91,0A2.5,2.5,0,0,1,43.69,58.13Zm-14.39-3H43.17a7,7,0,0,0-13.87,0Z" transform="translate(-7.4 -15.47)" fill="url(#a)"/><path d="M29.28,53.17H10.65A3.26,3.26,0,0,1,7.4,49.92,16.7,16.7,0,0,1,33.81,36.28l-1.75,2.44a13.58,13.58,0,0,0-7.94-2.55A13.74,13.74,0,0,0,10.4,49.89a.26.26,0,0,0,.25.28H29.28Z" transform="translate(-7.4 -15.47)" fill="url(#b)"/><path d="M61.82,53.17H43.19v-3H61.81a.25.25,0,0,0,.25-.25A13.75,13.75,0,0,0,48.34,36.17,13.55,13.55,0,0,0,40,39.06l-1.84-2.37a16.55,16.55,0,0,1,10.24-3.52A16.74,16.74,0,0,1,65.07,49.89,3.26,3.26,0,0,1,61.82,53.17Z" transform="translate(-7.4 -15.47)" fill="url(#c)"/><path d="M48.51,32.27a8.4,8.4,0,1,1,8.4-8.4A8.41,8.41,0,0,1,48.51,32.27Zm0-13.8a5.4,5.4,0,1,0,5.4,5.4A5.4,5.4,0,0,0,48.51,18.47Z" transform="translate(-7.4 -15.47)" fill="url(#d)"/><path d="M23.71,32.27a8.4,8.4,0,1,1,8.4-8.4A8.41,8.41,0,0,1,23.71,32.27Zm0-13.8a5.4,5.4,0,1,0,5.4,5.4A5.4,5.4,0,0,0,23.71,18.47Z" transform="translate(-7.4 -15.47)" fill="url(#e)"/><path d="M36.24,47.33A6.36,6.36,0,1,1,42.6,41,6.36,6.36,0,0,1,36.24,47.33Zm0-9.73A3.36,3.36,0,1,0,39.6,41,3.37,3.37,0,0,0,36.24,37.6Z" transform="translate(-7.4 -15.47)" fill="url(#f)"/></svg>