<svg xmlns="http://www.w3.org/2000/svg" width="33.33" height="33.33" viewBox="0 0 33.33 33.33"><path d="M15.49,8V7.88a1.55,1.55,0,1,0-1.85,1.51h1.85V8ZM9.4,7.88a4.44,4.44,0,0,0,.26,1.51H4.34a1,1,0,0,0-1,1v5.06H36.67V10.39a1,1,0,0,0-1-1H30.34a4.44,4.44,0,0,0,.26-1.51,4.54,4.54,0,0,0-8.93-1.2,4.52,4.52,0,0,0-3.34,0A4.54,4.54,0,0,0,9.4,7.88Zm17,1.51H24.51V7.88a1.55,1.55,0,1,1,3.09,0A1.54,1.54,0,0,1,26.36,9.39Zm-7.87,9.09H6.37V35.67a1,1,0,0,0,1,1H18.49Zm3,0H33.64V35.67a1,1,0,0,1-1,1H21.51Z" transform="translate(-3.34 -3.33)" fill="#fff" fill-rule="evenodd"/></svg>