<svg xmlns="http://www.w3.org/2000/svg" xmlns:xlink="http://www.w3.org/1999/xlink" width="49.21" height="39.9" viewBox="0 0 49.21 39.9"><defs><linearGradient id="a" x1="36.23" y1="62.52" x2="36.23" y2="20.06" gradientTransform="matrix(1, 0, 0, -1, 0, 74)" gradientUnits="userSpaceOnUse"><stop offset="0" stop-color="#a50034"/><stop offset="0.29" stop-color="#c90034"/><stop offset="0.57" stop-color="#e70034"/><stop offset="0.82" stop-color="#f90034"/><stop offset="1" stop-color="#ff0034"/></linearGradient></defs><path d="M39.56,21.11l-3.33,3.33-3.32-3.33A12.47,12.47,0,0,0,15.27,38.75l3,3,18,15.64,18-15.67,2.95-2.95A12.47,12.47,0,1,0,39.56,21.11Zm14.76,16,0,0L36.22,51.5l-18-15.61a8.43,8.43,0,0,1,0-11.91A8.4,8.4,0,0,1,30,24l6.2,6.2,6.2-6.2a8.4,8.4,0,0,1,11.88,0C57.62,27.28,57.62,33.76,54.32,37.06Z" transform="translate(-11.63 -17.46)" fill="url(#a)"/></svg>