<svg xmlns="http://www.w3.org/2000/svg" xmlns:xlink="http://www.w3.org/1999/xlink" width="59.2" height="47" viewBox="0 0 59.2 47"><defs><linearGradient id="a" x1="36.23" y1="59.89" x2="36.23" y2="4.73" gradientTransform="matrix(1, 0, 0, -1, 0, 74)" gradientUnits="userSpaceOnUse"><stop offset="0" stop-color="#a50034"/><stop offset="1" stop-color="#ff0034"/></linearGradient><linearGradient id="b" x1="12.96" y1="59.89" x2="12.96" y2="4.73" xlink:href="#a"/><linearGradient id="c" x1="59.68" y1="59.89" x2="59.68" y2="4.73" xlink:href="#a"/><linearGradient id="d" x1="17.72" y1="59.89" x2="17.72" y2="4.73" xlink:href="#a"/><linearGradient id="e" x1="55.02" y1="59.89" x2="55.02" y2="4.73" xlink:href="#a"/><linearGradient id="f" x1="37.22" y1="59.89" x2="37.22" y2="4.73" xlink:href="#a"/><clipPath id="g" transform="translate(-6.63 -13.3)"><path d="M44.51,35.31,32.1,28.15A2.17,2.17,0,0,0,28.84,30V44.36a2.17,2.17,0,0,0,3.26,1.88l12.41-7.17A2.17,2.17,0,0,0,44.51,35.31Z" fill="none"/></clipPath><linearGradient id="h" x1="28.84" y1="59.89" x2="28.84" y2="4.73" xlink:href="#a"/><linearGradient id="j" x1="28.94" y1="59.89" x2="28.94" y2="4.73" gradientTransform="matrix(1, 0, 0, -1, -6.63, 60.7)" xlink:href="#a"/><linearGradient id="l" x1="29.13" y1="59.89" x2="29.13" y2="4.73" gradientTransform="matrix(1, 0, 0, -1, -6.63, 60.7)" xlink:href="#a"/><linearGradient id="n" x1="29.3" y1="59.89" x2="29.3" y2="4.73" gradientTransform="matrix(1, 0, 0, -1, -6.63, 60.7)" xlink:href="#a"/><linearGradient id="p" x1="29.49" y1="59.89" x2="29.49" y2="4.73" gradientTransform="matrix(1, 0, 0, -1, -6.63, 60.7)" xlink:href="#a"/><linearGradient id="r" x1="29.68" y1="59.89" x2="29.68" y2="4.73" gradientTransform="matrix(1, 0, 0, -1, -6.63, 60.7)" xlink:href="#a"/><linearGradient id="t" x1="29.87" y1="59.89" x2="29.87" y2="4.73" gradientTransform="matrix(1, 0, 0, -1, -6.63, 60.7)" xlink:href="#a"/><linearGradient id="v" x1="30.05" y1="59.89" x2="30.05" y2="4.73" gradientTransform="matrix(1, 0, 0, -1, -6.63, 60.7)" xlink:href="#a"/><linearGradient id="x" x1="30.23" y1="59.89" x2="30.23" y2="4.73" gradientTransform="matrix(1, 0, 0, -1, -6.63, 60.7)" xlink:href="#a"/><linearGradient id="z" x1="30.43" y1="59.89" x2="30.43" y2="4.73" gradientTransform="matrix(1, 0, 0, -1, -6.63, 60.7)" xlink:href="#a"/><linearGradient id="ab" x1="30.62" y1="59.89" x2="30.62" y2="4.73" gradientTransform="matrix(1, 0, 0, -1, -6.63, 60.7)" xlink:href="#a"/><linearGradient id="ad" x1="30.8" y1="59.89" x2="30.8" y2="4.73" gradientTransform="matrix(1, 0, 0, -1, -6.63, 60.7)" xlink:href="#a"/><linearGradient id="af" x1="30.98" y1="59.89" x2="30.98" y2="4.73" gradientTransform="matrix(1, 0, 0, -1, -6.63, 60.7)" xlink:href="#a"/><linearGradient id="ah" x1="31.16" y1="59.89" x2="31.16" y2="4.73" gradientTransform="matrix(1, 0, 0, -1, -6.63, 60.7)" xlink:href="#a"/><linearGradient id="aj" x1="31.36" y1="59.89" x2="31.36" y2="4.73" gradientTransform="matrix(1, 0, 0, -1, -6.63, 60.7)" xlink:href="#a"/><linearGradient id="al" x1="31.55" y1="59.89" x2="31.55" y2="4.73" gradientTransform="matrix(1, 0, 0, -1, -6.63, 60.7)" xlink:href="#a"/><linearGradient id="an" x1="31.72" y1="59.89" x2="31.72" y2="4.73" gradientTransform="matrix(1, 0, 0, -1, -6.63, 60.7)" xlink:href="#a"/><linearGradient id="ap" x1="31.91" y1="59.89" x2="31.91" y2="4.73" gradientTransform="matrix(1, 0, 0, -1, -6.63, 60.7)" xlink:href="#a"/><linearGradient id="ar" x1="32.1" y1="59.89" x2="32.1" y2="4.73" gradientTransform="matrix(1, 0, 0, -1, -6.63, 60.7)" xlink:href="#a"/><linearGradient id="at" x1="32.28" y1="59.89" x2="32.28" y2="4.73" gradientTransform="matrix(1, 0, 0, -1, -6.63, 60.7)" xlink:href="#a"/><linearGradient id="av" x1="32.48" y1="59.89" x2="32.48" y2="4.73" gradientTransform="matrix(1, 0, 0, -1, -6.63, 60.7)" xlink:href="#a"/><linearGradient id="ax" x1="32.66" y1="59.89" x2="32.66" y2="4.73" gradientTransform="matrix(1, 0, 0, -1, -6.63, 60.7)" xlink:href="#a"/><linearGradient id="az" x1="32.84" y1="59.89" x2="32.84" y2="4.73" gradientTransform="matrix(1, 0, 0, -1, -6.63, 60.7)" xlink:href="#a"/><linearGradient id="bb" x1="33.03" y1="59.89" x2="33.03" y2="4.73" gradientTransform="matrix(1, 0, 0, -1, -6.63, 60.7)" xlink:href="#a"/><linearGradient id="bd" x1="33.21" y1="59.89" x2="33.21" y2="4.73" gradientTransform="matrix(1, 0, 0, -1, -6.63, 60.7)" xlink:href="#a"/><linearGradient id="bf" x1="33.41" y1="59.89" x2="33.41" y2="4.73" gradientTransform="matrix(1, 0, 0, -1, -6.63, 60.7)" xlink:href="#a"/><linearGradient id="bh" x1="33.59" y1="59.89" x2="33.59" y2="4.73" gradientTransform="matrix(1, 0, 0, -1, -6.63, 60.7)" xlink:href="#a"/><linearGradient id="bj" x1="33.77" y1="59.89" x2="33.77" y2="4.73" gradientTransform="matrix(1, 0, 0, -1, -6.63, 60.7)" xlink:href="#a"/><linearGradient id="bl" x1="33.96" y1="59.89" x2="33.96" y2="4.73" gradientTransform="matrix(1, 0, 0, -1, -6.63, 60.7)" xlink:href="#a"/><linearGradient id="bn" x1="34.14" y1="59.89" x2="34.14" y2="4.73" gradientTransform="matrix(1, 0, 0, -1, -6.63, 60.7)" xlink:href="#a"/><linearGradient id="bp" x1="34.34" y1="59.89" x2="34.34" y2="4.73" gradientTransform="matrix(1, 0, 0, -1, -6.63, 60.7)" xlink:href="#a"/><linearGradient id="br" x1="34.52" y1="59.89" x2="34.52" y2="4.73" gradientTransform="matrix(1, 0, 0, -1, -6.63, 60.7)" xlink:href="#a"/><linearGradient id="bt" x1="34.7" y1="59.89" x2="34.7" y2="4.73" gradientTransform="matrix(1, 0, 0, -1, -6.63, 60.7)" xlink:href="#a"/><linearGradient id="bv" x1="34.89" y1="59.89" x2="34.89" y2="4.73" gradientTransform="matrix(1, 0, 0, -1, -6.63, 60.7)" xlink:href="#a"/><linearGradient id="bx" x1="35.09" y1="59.89" x2="35.09" y2="4.73" gradientTransform="matrix(1, 0, 0, -1, -6.63, 60.7)" xlink:href="#a"/><linearGradient id="bz" x1="35.26" y1="59.89" x2="35.26" y2="4.73" gradientTransform="matrix(1, 0, 0, -1, -6.63, 60.7)" xlink:href="#a"/><linearGradient id="cb" x1="35.45" y1="59.89" x2="35.45" y2="4.73" gradientTransform="matrix(1, 0, 0, -1, -6.63, 60.7)" xlink:href="#a"/><linearGradient id="cd" x1="35.64" y1="59.89" x2="35.64" y2="4.73" gradientTransform="matrix(1, 0, 0, -1, -6.63, 60.7)" xlink:href="#a"/><linearGradient id="cf" x1="35.82" y1="59.89" x2="35.82" y2="4.73" gradientTransform="matrix(1, 0, 0, -1, -6.63, 60.7)" xlink:href="#a"/><linearGradient id="ch" x1="36.01" y1="59.89" x2="36.01" y2="4.73" gradientTransform="matrix(1, 0, 0, -1, -6.63, 60.7)" xlink:href="#a"/><linearGradient id="cj" x1="36.19" y1="59.89" x2="36.19" y2="4.73" gradientTransform="matrix(1, 0, 0, -1, -6.63, 60.7)" xlink:href="#a"/><linearGradient id="cl" x1="36.39" y1="59.89" x2="36.39" y2="4.73" gradientTransform="matrix(1, 0, 0, -1, -6.63, 60.7)" xlink:href="#a"/><linearGradient id="cn" x1="36.57" y1="59.89" x2="36.57" y2="4.73" gradientTransform="matrix(1, 0, 0, -1, -6.63, 60.7)" xlink:href="#a"/><linearGradient id="cp" x1="36.75" y1="59.89" x2="36.75" y2="4.73" gradientTransform="matrix(1, 0, 0, -1, -6.63, 60.7)" xlink:href="#a"/><linearGradient id="cr" x1="36.94" y1="59.89" x2="36.94" y2="4.73" gradientTransform="matrix(1, 0, 0, -1, -6.63, 60.7)" xlink:href="#a"/><linearGradient id="ct" x1="37.12" y1="59.89" x2="37.12" y2="4.73" gradientTransform="matrix(1, 0, 0, -1, -6.63, 60.7)" xlink:href="#a"/><linearGradient id="cv" x1="37.32" y1="59.89" x2="37.32" y2="4.73" gradientTransform="matrix(1, 0, 0, -1, -6.63, 60.7)" xlink:href="#a"/><linearGradient id="cx" x1="37.5" y1="59.89" x2="37.5" y2="4.73" gradientTransform="matrix(1, 0, 0, -1, -6.63, 60.7)" xlink:href="#a"/><linearGradient id="cz" x1="37.68" y1="59.89" x2="37.68" y2="4.73" gradientTransform="matrix(1, 0, 0, -1, -6.63, 60.7)" xlink:href="#a"/><linearGradient id="db" x1="37.87" y1="59.89" x2="37.87" y2="4.73" gradientTransform="matrix(1, 0, 0, -1, -6.63, 60.7)" xlink:href="#a"/><linearGradient id="dd" x1="38.07" y1="59.89" x2="38.07" y2="4.73" gradientTransform="matrix(1, 0, 0, -1, -6.63, 60.7)" xlink:href="#a"/><linearGradient id="df" x1="38.25" y1="59.89" x2="38.25" y2="4.73" gradientTransform="matrix(1, 0, 0, -1, -6.63, 60.7)" xlink:href="#a"/><linearGradient id="dh" x1="38.43" y1="59.89" x2="38.43" y2="4.73" gradientTransform="matrix(1, 0, 0, -1, -6.63, 60.7)" xlink:href="#a"/><linearGradient id="dj" x1="38.61" y1="59.89" x2="38.61" y2="4.73" gradientTransform="matrix(1, 0, 0, -1, -6.63, 60.7)" xlink:href="#a"/><linearGradient id="dl" x1="38.8" y1="59.89" x2="38.8" y2="4.73" gradientTransform="matrix(1, 0, 0, -1, -6.63, 60.7)" xlink:href="#a"/><linearGradient id="dn" x1="39" y1="59.89" x2="39" y2="4.73" gradientTransform="matrix(1, 0, 0, -1, -6.63, 60.7)" xlink:href="#a"/><linearGradient id="dp" x1="39.18" y1="59.89" x2="39.18" y2="4.73" gradientTransform="matrix(1, 0, 0, -1, -6.63, 60.7)" xlink:href="#a"/><linearGradient id="dr" x1="39.36" y1="59.89" x2="39.36" y2="4.73" gradientTransform="matrix(1, 0, 0, -1, -6.63, 60.7)" xlink:href="#a"/><linearGradient id="dt" x1="39.55" y1="59.89" x2="39.55" y2="4.73" gradientTransform="matrix(1, 0, 0, -1, -6.63, 60.7)" xlink:href="#a"/><linearGradient id="dv" x1="39.73" y1="59.89" x2="39.73" y2="4.73" gradientTransform="matrix(1, 0, 0, -1, -6.63, 60.7)" xlink:href="#a"/><linearGradient id="dx" x1="39.93" y1="59.89" x2="39.93" y2="4.73" gradientTransform="matrix(1, 0, 0, -1, -6.63, 60.7)" xlink:href="#a"/><linearGradient id="dz" x1="40.1" y1="59.89" x2="40.1" y2="4.73" gradientTransform="matrix(1, 0, 0, -1, -6.63, 60.7)" xlink:href="#a"/><linearGradient id="eb" x1="40.3" y1="59.89" x2="40.3" y2="4.73" gradientTransform="matrix(1, 0, 0, -1, -6.63, 60.7)" xlink:href="#a"/><linearGradient id="ed" x1="40.48" y1="59.89" x2="40.48" y2="4.73" gradientTransform="matrix(1, 0, 0, -1, -6.63, 60.7)" xlink:href="#a"/><linearGradient id="ef" x1="40.66" y1="59.89" x2="40.66" y2="4.73" gradientTransform="matrix(1, 0, 0, -1, -6.63, 60.7)" xlink:href="#a"/><linearGradient id="eh" x1="40.85" y1="59.89" x2="40.85" y2="4.73" gradientTransform="matrix(1, 0, 0, -1, -6.63, 60.7)" xlink:href="#a"/><linearGradient id="ej" x1="41.05" y1="59.89" x2="41.05" y2="4.73" gradientTransform="matrix(1, 0, 0, -1, -6.63, 60.7)" xlink:href="#a"/><linearGradient id="el" x1="41.23" y1="59.89" x2="41.23" y2="4.73" gradientTransform="matrix(1, 0, 0, -1, -6.63, 60.7)" xlink:href="#a"/><linearGradient id="en" x1="41.41" y1="59.89" x2="41.41" y2="4.73" gradientTransform="matrix(1, 0, 0, -1, -6.63, 60.7)" xlink:href="#a"/><linearGradient id="ep" x1="41.59" y1="59.89" x2="41.59" y2="4.73" gradientTransform="matrix(1, 0, 0, -1, -6.63, 60.7)" xlink:href="#a"/><linearGradient id="er" x1="41.78" y1="59.89" x2="41.78" y2="4.73" gradientTransform="matrix(1, 0, 0, -1, -6.63, 60.7)" xlink:href="#a"/><linearGradient id="et" x1="41.98" y1="59.89" x2="41.98" y2="4.73" gradientTransform="matrix(1, 0, 0, -1, -6.63, 60.7)" xlink:href="#a"/><linearGradient id="ev" x1="42.16" y1="59.89" x2="42.16" y2="4.73" gradientTransform="matrix(1, 0, 0, -1, -6.63, 60.7)" xlink:href="#a"/><linearGradient id="ex" x1="42.34" y1="59.89" x2="42.34" y2="4.73" gradientTransform="matrix(1, 0, 0, -1, -6.63, 60.7)" xlink:href="#a"/><linearGradient id="ez" x1="42.53" y1="59.89" x2="42.53" y2="4.73" gradientTransform="matrix(1, 0, 0, -1, -6.63, 60.7)" xlink:href="#a"/><linearGradient id="fb" x1="42.71" y1="59.89" x2="42.71" y2="4.73" gradientTransform="matrix(1, 0, 0, -1, -6.63, 60.7)" xlink:href="#a"/><linearGradient id="fd" x1="42.91" y1="59.89" x2="42.91" y2="4.73" gradientTransform="matrix(1, 0, 0, -1, -6.63, 60.7)" xlink:href="#a"/><linearGradient id="ff" x1="43.09" y1="59.89" x2="43.09" y2="4.73" gradientTransform="matrix(1, 0, 0, -1, -6.63, 60.7)" xlink:href="#a"/><linearGradient id="fh" x1="43.27" y1="59.89" x2="43.27" y2="4.73" gradientTransform="matrix(1, 0, 0, -1, -6.63, 60.7)" xlink:href="#a"/><linearGradient id="fj" x1="43.46" y1="59.89" x2="43.46" y2="4.73" gradientTransform="matrix(1, 0, 0, -1, -6.63, 60.7)" xlink:href="#a"/><linearGradient id="fl" x1="43.64" y1="59.89" x2="43.64" y2="4.73" gradientTransform="matrix(1, 0, 0, -1, -6.63, 60.7)" xlink:href="#a"/><linearGradient id="fn" x1="43.84" y1="59.89" x2="43.84" y2="4.73" gradientTransform="matrix(1, 0, 0, -1, -6.63, 60.7)" xlink:href="#a"/><linearGradient id="fp" x1="44.02" y1="59.89" x2="44.02" y2="4.73" gradientTransform="matrix(1, 0, 0, -1, -6.63, 60.7)" xlink:href="#a"/><linearGradient id="fr" x1="44.2" y1="59.89" x2="44.2" y2="4.73" gradientTransform="matrix(1, 0, 0, -1, -6.63, 60.7)" xlink:href="#a"/><linearGradient id="ft" x1="44.39" y1="59.89" x2="44.39" y2="4.73" gradientTransform="matrix(1, 0, 0, -1, -6.63, 60.7)" xlink:href="#a"/><linearGradient id="fv" x1="44.57" y1="59.89" x2="44.57" y2="4.73" gradientTransform="matrix(1, 0, 0, -1, -6.63, 60.7)" xlink:href="#a"/><linearGradient id="fx" x1="44.76" y1="59.89" x2="44.76" y2="4.73" gradientTransform="matrix(1, 0, 0, -1, -6.63, 60.7)" xlink:href="#a"/><linearGradient id="fz" x1="44.95" y1="59.89" x2="44.95" y2="4.73" gradientTransform="matrix(1, 0, 0, -1, -6.63, 60.7)" xlink:href="#a"/><linearGradient id="gb" x1="45.14" y1="59.89" x2="45.14" y2="4.73" gradientTransform="matrix(1, 0, 0, -1, -6.63, 60.7)" xlink:href="#a"/><linearGradient id="gd" x1="45.32" y1="59.89" x2="45.32" y2="4.73" gradientTransform="matrix(1, 0, 0, -1, -6.63, 60.7)" xlink:href="#a"/><linearGradient id="gf" x1="45.5" y1="59.89" x2="45.5" y2="4.73" gradientTransform="matrix(1, 0, 0, -1, -6.63, 60.7)" xlink:href="#a"/><linearGradient id="gh" x1="45.78" y1="59.89" x2="45.78" y2="4.73" gradientTransform="matrix(1, 0, 0, -1, -6.63, 60.7)" xlink:href="#a"/></defs><path d="M64.34,60.3H8.13a1.5,1.5,0,0,1-1.5-1.5v-44a1.5,1.5,0,0,1,1.5-1.5h56.2a1.5,1.5,0,0,1,1.5,1.5v44A1.49,1.49,0,0,1,64.34,60.3Zm-54.71-3h53.2v-41H9.63Z" transform="translate(-6.63 -13.3)" fill="url(#a)"/><path d="M13,54.13a1.5,1.5,0,0,1-1.5-1.5V51.09a1.5,1.5,0,0,1,3,0v1.54A1.5,1.5,0,0,1,13,54.13Zm0-7.7a1.5,1.5,0,0,1-1.5-1.5V43.39a1.5,1.5,0,0,1,3,0v1.54A1.5,1.5,0,0,1,13,46.43Zm0-7.7a1.5,1.5,0,0,1-1.5-1.5V35.69a1.5,1.5,0,0,1,3,0v1.54A1.5,1.5,0,0,1,13,38.73ZM13,31a1.5,1.5,0,0,1-1.5-1.5V28a1.5,1.5,0,0,1,3,0v1.54A1.5,1.5,0,0,1,13,31Zm0-7.7a1.5,1.5,0,0,1-1.5-1.5V20.29a1.5,1.5,0,0,1,3,0v1.54A1.5,1.5,0,0,1,13,23.33Z" transform="translate(-6.63 -13.3)" fill="url(#b)"/><path d="M59.68,54.13a1.5,1.5,0,0,1-1.5-1.5V51.09a1.5,1.5,0,0,1,3,0v1.54A1.5,1.5,0,0,1,59.68,54.13Zm0-7.7a1.5,1.5,0,0,1-1.5-1.5V43.39a1.5,1.5,0,0,1,3,0v1.54A1.5,1.5,0,0,1,59.68,46.43Zm0-7.7a1.5,1.5,0,0,1-1.5-1.5V35.69a1.5,1.5,0,0,1,3,0v1.54A1.5,1.5,0,0,1,59.68,38.73Zm0-7.7a1.5,1.5,0,0,1-1.5-1.5V28a1.5,1.5,0,0,1,3,0v1.54A1.5,1.5,0,0,1,59.68,31Zm0-7.7a1.5,1.5,0,0,1-1.5-1.5V20.29a1.5,1.5,0,0,1,3,0v1.54A1.5,1.5,0,0,1,59.68,23.33Z" transform="translate(-6.63 -13.3)" fill="url(#c)"/><path d="M17.72,59.82a1.5,1.5,0,0,1-1.5-1.5V15a1.5,1.5,0,1,1,3,0V58.33A1.5,1.5,0,0,1,17.72,59.82Z" transform="translate(-6.63 -13.3)" fill="url(#d)"/><path d="M55,59.13a1.5,1.5,0,0,1-1.5-1.5V15a1.5,1.5,0,0,1,3,0V57.63A1.5,1.5,0,0,1,55,59.13Z" transform="translate(-6.63 -13.3)" fill="url(#e)"/><path d="M44.51,35.31,32.1,28.15A2.17,2.17,0,0,0,28.84,30V44.36a2.17,2.17,0,0,0,3.26,1.88l12.41-7.17A2.17,2.17,0,0,0,44.51,35.31Z" transform="translate(-6.63 -13.3)" fill="url(#f)"/><g clip-path="url(#g)"><path d="M28.84,27.31v0Z" transform="translate(-6.63 -13.3)" fill="url(#h)"/></g><g clip-path="url(#g)"><rect x="22.21" y="14.01" width="0.19" height="19.77" fill="url(#j)"/></g><g clip-path="url(#g)"><rect x="22.4" y="14.01" width="0.19" height="19.77" fill="url(#l)"/></g><g clip-path="url(#g)"><rect x="22.58" y="14.01" width="0.19" height="19.77" fill="url(#n)"/></g><g clip-path="url(#g)"><rect x="22.77" y="14.01" width="0.19" height="19.77" fill="url(#p)"/></g><g clip-path="url(#g)"><rect x="22.95" y="14.01" width="0.19" height="19.77" fill="url(#r)"/></g><g clip-path="url(#g)"><rect x="23.14" y="14.01" width="0.19" height="19.77" fill="url(#t)"/></g><g clip-path="url(#g)"><rect x="23.33" y="14.01" width="0.19" height="19.77" fill="url(#v)"/></g><g clip-path="url(#g)"><rect x="23.51" y="14.01" width="0.19" height="19.77" fill="url(#x)"/></g><g clip-path="url(#g)"><rect x="23.7" y="14.01" width="0.19" height="19.77" fill="url(#z)"/></g><g clip-path="url(#g)"><rect x="23.89" y="14.01" width="0.19" height="19.77" fill="url(#ab)"/></g><g clip-path="url(#g)"><rect x="24.07" y="14.01" width="0.19" height="19.77" fill="url(#ad)"/></g><g clip-path="url(#g)"><rect x="24.26" y="14.01" width="0.19" height="19.77" fill="url(#af)"/></g><g clip-path="url(#g)"><rect x="24.44" y="14.01" width="0.19" height="19.77" fill="url(#ah)"/></g><g clip-path="url(#g)"><rect x="24.63" y="14.01" width="0.19" height="19.77" fill="url(#aj)"/></g><g clip-path="url(#g)"><rect x="24.82" y="14.01" width="0.19" height="19.77" fill="url(#al)"/></g><g clip-path="url(#g)"><rect x="25" y="14.01" width="0.19" height="19.77" fill="url(#an)"/></g><g clip-path="url(#g)"><rect x="25.19" y="14.01" width="0.19" height="19.77" fill="url(#ap)"/></g><g clip-path="url(#g)"><rect x="25.38" y="14.01" width="0.19" height="19.77" fill="url(#ar)"/></g><g clip-path="url(#g)"><rect x="25.56" y="14.01" width="0.19" height="19.77" fill="url(#at)"/></g><g clip-path="url(#g)"><rect x="25.75" y="14.01" width="0.19" height="19.77" fill="url(#av)"/></g><g clip-path="url(#g)"><rect x="25.93" y="14.01" width="0.19" height="19.77" fill="url(#ax)"/></g><g clip-path="url(#g)"><rect x="26.12" y="14.01" width="0.19" height="19.77" fill="url(#az)"/></g><g clip-path="url(#g)"><rect x="26.31" y="14.01" width="0.19" height="19.77" fill="url(#bb)"/></g><g clip-path="url(#g)"><rect x="26.49" y="14.01" width="0.19" height="19.77" fill="url(#bd)"/></g><g clip-path="url(#g)"><rect x="26.68" y="14.01" width="0.19" height="19.77" fill="url(#bf)"/></g><g clip-path="url(#g)"><rect x="26.87" y="14.01" width="0.19" height="19.77" fill="url(#bh)"/></g><g clip-path="url(#g)"><rect x="27.05" y="14.01" width="0.19" height="19.77" fill="url(#bj)"/></g><g clip-path="url(#g)"><rect x="27.24" y="14.01" width="0.19" height="19.77" fill="url(#bl)"/></g><g clip-path="url(#g)"><rect x="27.42" y="14.01" width="0.19" height="19.77" fill="url(#bn)"/></g><g clip-path="url(#g)"><rect x="27.61" y="14.01" width="0.19" height="19.77" fill="url(#bp)"/></g><g clip-path="url(#g)"><rect x="27.8" y="14.01" width="0.19" height="19.77" fill="url(#br)"/></g><g clip-path="url(#g)"><rect x="27.98" y="14.01" width="0.19" height="19.77" fill="url(#bt)"/></g><g clip-path="url(#g)"><rect x="28.17" y="14.01" width="0.19" height="19.77" fill="url(#bv)"/></g><g clip-path="url(#g)"><rect x="28.36" y="14.01" width="0.19" height="19.77" fill="url(#bx)"/></g><g clip-path="url(#g)"><rect x="28.54" y="14.01" width="0.19" height="19.77" fill="url(#bz)"/></g><g clip-path="url(#g)"><rect x="28.73" y="14.01" width="0.19" height="19.77" fill="url(#cb)"/></g><g clip-path="url(#g)"><rect x="28.91" y="14.01" width="0.19" height="19.77" fill="url(#cd)"/></g><g clip-path="url(#g)"><rect x="29.1" y="14.01" width="0.19" height="19.77" fill="url(#cf)"/></g><g clip-path="url(#g)"><rect x="29.29" y="14.01" width="0.19" height="19.77" fill="url(#ch)"/></g><g clip-path="url(#g)"><rect x="29.47" y="14.01" width="0.19" height="19.77" fill="url(#cj)"/></g><g clip-path="url(#g)"><rect x="29.66" y="14.01" width="0.19" height="19.77" fill="url(#cl)"/></g><g clip-path="url(#g)"><rect x="29.85" y="14.01" width="0.19" height="19.77" fill="url(#cn)"/></g><g clip-path="url(#g)"><rect x="30.03" y="14.01" width="0.19" height="19.77" fill="url(#cp)"/></g><g clip-path="url(#g)"><rect x="30.22" y="14.01" width="0.19" height="19.77" fill="url(#cr)"/></g><g clip-path="url(#g)"><rect x="30.4" y="14.01" width="0.19" height="19.77" fill="url(#ct)"/></g><g clip-path="url(#g)"><rect x="30.59" y="14.01" width="0.19" height="19.77" fill="url(#cv)"/></g><g clip-path="url(#g)"><rect x="30.78" y="14.01" width="0.19" height="19.77" fill="url(#cx)"/></g><g clip-path="url(#g)"><rect x="30.96" y="14.01" width="0.19" height="19.77" fill="url(#cz)"/></g><g clip-path="url(#g)"><rect x="31.15" y="14.01" width="0.19" height="19.77" fill="url(#db)"/></g><g clip-path="url(#g)"><rect x="31.34" y="14.01" width="0.19" height="19.77" fill="url(#dd)"/></g><g clip-path="url(#g)"><rect x="31.52" y="14.01" width="0.19" height="19.77" fill="url(#df)"/></g><g clip-path="url(#g)"><rect x="31.71" y="14.01" width="0.19" height="19.77" fill="url(#dh)"/></g><g clip-path="url(#g)"><rect x="31.89" y="14.01" width="0.19" height="19.77" fill="url(#dj)"/></g><g clip-path="url(#g)"><rect x="32.08" y="14.01" width="0.19" height="19.77" fill="url(#dl)"/></g><g clip-path="url(#g)"><rect x="32.27" y="14.01" width="0.19" height="19.77" fill="url(#dn)"/></g><g clip-path="url(#g)"><rect x="32.45" y="14.01" width="0.19" height="19.77" fill="url(#dp)"/></g><g clip-path="url(#g)"><rect x="32.64" y="14.01" width="0.19" height="19.77" fill="url(#dr)"/></g><g clip-path="url(#g)"><rect x="32.83" y="14.01" width="0.19" height="19.77" fill="url(#dt)"/></g><g clip-path="url(#g)"><rect x="33.01" y="14.01" width="0.19" height="19.77" fill="url(#dv)"/></g><g clip-path="url(#g)"><rect x="33.2" y="14.01" width="0.19" height="19.77" fill="url(#dx)"/></g><g clip-path="url(#g)"><rect x="33.38" y="14.01" width="0.19" height="19.77" fill="url(#dz)"/></g><g clip-path="url(#g)"><rect x="33.57" y="14.01" width="0.19" height="19.77" fill="url(#eb)"/></g><g clip-path="url(#g)"><rect x="33.76" y="14.01" width="0.19" height="19.77" fill="url(#ed)"/></g><g clip-path="url(#g)"><rect x="33.94" y="14.01" width="0.19" height="19.77" fill="url(#ef)"/></g><g clip-path="url(#g)"><rect x="34.13" y="14.01" width="0.19" height="19.77" fill="url(#eh)"/></g><g clip-path="url(#g)"><rect x="34.32" y="14.01" width="0.19" height="19.77" fill="url(#ej)"/></g><g clip-path="url(#g)"><rect x="34.5" y="14.01" width="0.19" height="19.77" fill="url(#el)"/></g><g clip-path="url(#g)"><rect x="34.69" y="14.01" width="0.19" height="19.77" fill="url(#en)"/></g><g clip-path="url(#g)"><rect x="34.87" y="14.01" width="0.19" height="19.77" fill="url(#ep)"/></g><g clip-path="url(#g)"><rect x="35.06" y="14.01" width="0.19" height="19.77" fill="url(#er)"/></g><g clip-path="url(#g)"><rect x="35.25" y="14.01" width="0.19" height="19.77" fill="url(#et)"/></g><g clip-path="url(#g)"><rect x="35.43" y="14.01" width="0.19" height="19.77" fill="url(#ev)"/></g><g clip-path="url(#g)"><rect x="35.62" y="14.01" width="0.19" height="19.77" fill="url(#ex)"/></g><g clip-path="url(#g)"><rect x="35.81" y="14.01" width="0.19" height="19.77" fill="url(#ez)"/></g><g clip-path="url(#g)"><rect x="35.99" y="14.01" width="0.19" height="19.77" fill="url(#fb)"/></g><g clip-path="url(#g)"><rect x="36.18" y="14.01" width="0.19" height="19.77" fill="url(#fd)"/></g><g clip-path="url(#g)"><rect x="36.36" y="14.01" width="0.19" height="19.77" fill="url(#ff)"/></g><g clip-path="url(#g)"><rect x="36.55" y="14.01" width="0.19" height="19.77" fill="url(#fh)"/></g><g clip-path="url(#g)"><rect x="36.74" y="14.01" width="0.19" height="19.77" fill="url(#fj)"/></g><g clip-path="url(#g)"><rect x="36.92" y="14.01" width="0.19" height="19.77" fill="url(#fl)"/></g><g clip-path="url(#g)"><rect x="37.11" y="14.01" width="0.19" height="19.77" fill="url(#fn)"/></g><g clip-path="url(#g)"><rect x="37.3" y="14.01" width="0.19" height="19.77" fill="url(#fp)"/></g><g clip-path="url(#g)"><rect x="37.48" y="14.01" width="0.19" height="19.77" fill="url(#fr)"/></g><g clip-path="url(#g)"><rect x="37.67" y="14.01" width="0.19" height="19.77" fill="url(#ft)"/></g><g clip-path="url(#g)"><rect x="37.85" y="14.01" width="0.19" height="19.77" fill="url(#fv)"/></g><g clip-path="url(#g)"><rect x="38.04" y="14.01" width="0.19" height="19.77" fill="url(#fx)"/></g><g clip-path="url(#g)"><rect x="38.23" y="14.01" width="0.19" height="19.77" fill="url(#fz)"/></g><g clip-path="url(#g)"><rect x="38.41" y="14.01" width="0.19" height="19.77" fill="url(#gb)"/></g><g clip-path="url(#g)"><rect x="38.6" y="14.01" width="0.19" height="19.77" fill="url(#gd)"/></g><g clip-path="url(#g)"><rect x="38.78" y="14.01" width="0.19" height="19.77" fill="url(#gf)"/></g><g clip-path="url(#g)"><rect x="38.97" y="14.01" width="0.36" height="19.77" fill="url(#gh)"/></g></svg>