<svg xmlns="http://www.w3.org/2000/svg" xmlns:xlink="http://www.w3.org/1999/xlink" width="52.8" height="52.06" viewBox="0 0 52.8 52.06"><defs><linearGradient id="a" x1="36.23" y1="62.94" x2="36.23" y2="14.28" gradientTransform="matrix(1, 0, 0, -1, 0, 74)" gradientUnits="userSpaceOnUse"><stop offset="0" stop-color="#a50034"/><stop offset="1" stop-color="#ff0034"/></linearGradient></defs><path d="M42.24,62.83a1.5,1.5,0,0,1-.36-3,23.39,23.39,0,1,0-26.25-11.6A23.79,23.79,0,0,0,18.16,52a1.5,1.5,0,1,1-2.31,1.91A26.93,26.93,0,0,1,13,49.7,26.4,26.4,0,1,1,42.6,62.79,1.47,1.47,0,0,1,42.24,62.83Z" transform="translate(-9.83 -10.77)" fill="url(#a)"/><path d="M42,62.75a1.5,1.5,0,0,1-1.5-1.5v-15A1.5,1.5,0,0,1,42,44.8h6.07L36.23,24.24,24.36,44.8h6.07a1.5,1.5,0,0,1,1.5,1.5v9.89a1.5,1.5,0,0,1-3,0V47.8H21.76a1.51,1.51,0,0,1-1.3-.75,1.49,1.49,0,0,1,0-1.5L34.93,20.49a1.5,1.5,0,0,1,2.6,0L52,45.55a1.49,1.49,0,0,1,0,1.5,1.51,1.51,0,0,1-1.3.75H43.53V61.25A1.48,1.48,0,0,1,42,62.75Z" transform="translate(-9.83 -10.77)" fill="url(#a)"/></svg>