<svg xmlns="http://www.w3.org/2000/svg" xmlns:xlink="http://www.w3.org/1999/xlink" width="59.87" height="34.31" viewBox="0 0 59.87 34.31"><defs><linearGradient id="a" x1="33.19" y1="58.66" x2="33.19" y2="19.82" gradientTransform="matrix(1, 0, 0, -1, 0, 74)" gradientUnits="userSpaceOnUse"><stop offset="0" stop-color="#a50034"/><stop offset="1" stop-color="#ff0034"/></linearGradient><clipPath id="c" transform="translate(-6.3 -19.65)"><circle cx="33.01" cy="40.03" r="5.74" fill="none"/></clipPath><linearGradient id="cp" x1="33.01" y1="58.66" x2="33.01" y2="19.82" xlink:href="#a"/><linearGradient id="cq" x1="39.28" y1="58.66" x2="39.28" y2="19.82" xlink:href="#a"/></defs><path d="M57.23,54H9.15A2.86,2.86,0,0,1,6.3,51.11V28.7a2.86,2.86,0,0,1,2.85-2.85H57.23a2.86,2.86,0,0,1,2.85,2.85V51.11A2.86,2.86,0,0,1,57.23,54ZM9.3,51H57.08V28.86H9.3Z" transform="translate(-6.3 -19.65)" fill="url(#a)"/><path d="M48.09,49.72H18.42a1.5,1.5,0,0,1-1.5-1.49A3.74,3.74,0,0,0,14.63,46a1.5,1.5,0,0,1-1.47-1.5v-9.1a1.5,1.5,0,0,1,1.47-1.5,3.82,3.82,0,0,0,2.29-2.21v-.1a1.5,1.5,0,0,1,1.5-1.5H48.09a1.5,1.5,0,0,1,1.5,1.58v1a3,3,0,0,0,2.23,1.24,1.5,1.5,0,0,1,1.4,1.5v9.13a1.51,1.51,0,0,1-1.4,1.5,3.79,3.79,0,0,0-2.22,2.23A1.54,1.54,0,0,1,48.09,49.72Zm-28.53-3H46.94a7.13,7.13,0,0,1,3.27-3.33v-6.8c-1.66-.55-3.34-1.82-3.59-3.51h-27a7.12,7.12,0,0,1-3.43,3.46v6.81A7.15,7.15,0,0,1,19.56,46.72Z" transform="translate(-6.3 -19.65)" fill="url(#a)"/><g clip-path="url(#c)"><rect x="20.97" y="14.64" width="11.48" height="11.48" fill="#ff0034"/></g><g clip-path="url(#c)"><circle cx="26.71" cy="20.38" r="5.74" fill="#ff0034"/></g><g clip-path="url(#c)"><circle cx="26.71" cy="20.38" r="5.68" fill="#fe0034"/></g><g clip-path="url(#c)"><circle cx="26.71" cy="20.38" r="5.61" fill="#fd0034"/></g><g clip-path="url(#c)"><circle cx="26.71" cy="20.38" r="5.55" fill="#fc0034"/></g><g clip-path="url(#c)"><circle cx="26.71" cy="20.38" r="5.48" fill="#fb0034"/></g><g clip-path="url(#c)"><circle cx="26.71" cy="20.38" r="5.42" fill="#fa0034"/></g><g clip-path="url(#c)"><circle cx="26.71" cy="20.38" r="5.36" fill="#f90034"/></g><g clip-path="url(#c)"><circle cx="26.71" cy="20.38" r="5.29" fill="#f80034"/></g><g clip-path="url(#c)"><circle cx="26.71" cy="20.38" r="5.23" fill="#f70034"/></g><g clip-path="url(#c)"><circle cx="26.71" cy="20.38" r="5.17" fill="#f60034"/></g><g clip-path="url(#c)"><circle cx="26.71" cy="20.38" r="5.1" fill="#f50034"/></g><g clip-path="url(#c)"><circle cx="26.71" cy="20.38" r="5.04" fill="#f40034"/></g><g clip-path="url(#c)"><circle cx="26.71" cy="20.38" r="4.97" fill="#f30034"/></g><g clip-path="url(#c)"><circle cx="26.71" cy="20.38" r="4.91" fill="#f20034"/></g><g clip-path="url(#c)"><circle cx="26.71" cy="20.38" r="4.85" fill="#f10034"/></g><g clip-path="url(#c)"><circle cx="26.71" cy="20.38" r="4.78" fill="#f00034"/></g><g clip-path="url(#c)"><circle cx="26.71" cy="20.38" r="4.72" fill="#ef0034"/></g><g clip-path="url(#c)"><circle cx="26.71" cy="20.38" r="4.66" fill="#ee0034"/></g><g clip-path="url(#c)"><circle cx="26.71" cy="20.38" r="4.59" fill="#ed0034"/></g><g clip-path="url(#c)"><circle cx="26.71" cy="20.38" r="4.53" fill="#ec0034"/></g><g clip-path="url(#c)"><circle cx="26.71" cy="20.38" r="4.46" fill="#eb0034"/></g><g clip-path="url(#c)"><circle cx="26.71" cy="20.38" r="4.4" fill="#ea0034"/></g><g clip-path="url(#c)"><circle cx="26.71" cy="20.38" r="4.34" fill="#e90034"/></g><g clip-path="url(#c)"><circle cx="26.71" cy="20.38" r="4.27" fill="#e80034"/></g><g clip-path="url(#c)"><circle cx="26.71" cy="20.38" r="4.21" fill="#e70034"/></g><g clip-path="url(#c)"><circle cx="26.71" cy="20.38" r="4.15" fill="#e60034"/></g><g clip-path="url(#c)"><circle cx="26.71" cy="20.38" r="4.08" fill="#e50034"/></g><g clip-path="url(#c)"><circle cx="26.71" cy="20.38" r="4.02" fill="#e40034"/></g><g clip-path="url(#c)"><circle cx="26.71" cy="20.38" r="3.95" fill="#e30034"/></g><g clip-path="url(#c)"><circle cx="26.71" cy="20.38" r="3.89" fill="#e20034"/></g><g clip-path="url(#c)"><circle cx="26.71" cy="20.38" r="3.83" fill="#e10034"/></g><g clip-path="url(#c)"><circle cx="26.71" cy="20.38" r="3.76" fill="#e00034"/></g><g clip-path="url(#c)"><circle cx="26.71" cy="20.38" r="3.7" fill="#df0034"/></g><g clip-path="url(#c)"><circle cx="26.71" cy="20.38" r="3.64" fill="#de0034"/></g><g clip-path="url(#c)"><circle cx="26.71" cy="20.38" r="3.57" fill="#dd0034"/></g><g clip-path="url(#c)"><circle cx="26.71" cy="20.38" r="3.51" fill="#dc0034"/></g><g clip-path="url(#c)"><circle cx="26.71" cy="20.38" r="3.44" fill="#db0034"/></g><g clip-path="url(#c)"><circle cx="26.71" cy="20.38" r="3.38" fill="#da0034"/></g><g clip-path="url(#c)"><circle cx="26.71" cy="20.38" r="3.32" fill="#d90034"/></g><g clip-path="url(#c)"><circle cx="26.71" cy="20.38" r="3.25" fill="#d80034"/></g><g clip-path="url(#c)"><circle cx="26.71" cy="20.38" r="3.19" fill="#d70034"/></g><g clip-path="url(#c)"><circle cx="26.71" cy="20.38" r="3.12" fill="#d60034"/></g><g clip-path="url(#c)"><circle cx="26.71" cy="20.38" r="3.06" fill="#d50034"/></g><g clip-path="url(#c)"><circle cx="26.71" cy="20.38" r="3" fill="#d40034"/></g><g clip-path="url(#c)"><circle cx="26.71" cy="20.38" r="2.93" fill="#d30034"/></g><g clip-path="url(#c)"><circle cx="26.71" cy="20.38" r="2.87" fill="#d10034"/></g><g clip-path="url(#c)"><circle cx="26.71" cy="20.38" r="2.81" fill="#d00034"/></g><g clip-path="url(#c)"><circle cx="26.71" cy="20.38" r="2.74" fill="#cf0034"/></g><g clip-path="url(#c)"><circle cx="26.71" cy="20.38" r="2.68" fill="#ce0034"/></g><g clip-path="url(#c)"><circle cx="26.71" cy="20.38" r="2.61" fill="#cd0034"/></g><g clip-path="url(#c)"><circle cx="26.71" cy="20.38" r="2.55" fill="#cc0034"/></g><g clip-path="url(#c)"><circle cx="26.71" cy="20.38" r="2.49" fill="#cb0034"/></g><g clip-path="url(#c)"><circle cx="26.71" cy="20.38" r="2.42" fill="#ca0034"/></g><g clip-path="url(#c)"><circle cx="26.71" cy="20.38" r="2.36" fill="#c90034"/></g><g clip-path="url(#c)"><circle cx="26.71" cy="20.38" r="2.3" fill="#c80034"/></g><g clip-path="url(#c)"><circle cx="26.71" cy="20.38" r="2.23" fill="#c70034"/></g><g clip-path="url(#c)"><circle cx="26.71" cy="20.38" r="2.17" fill="#c60034"/></g><g clip-path="url(#c)"><circle cx="26.71" cy="20.38" r="2.1" fill="#c50034"/></g><g clip-path="url(#c)"><circle cx="26.71" cy="20.38" r="2.04" fill="#c40034"/></g><g clip-path="url(#c)"><circle cx="26.71" cy="20.38" r="1.98" fill="#c30034"/></g><g clip-path="url(#c)"><circle cx="26.71" cy="20.38" r="1.91" fill="#c20034"/></g><g clip-path="url(#c)"><circle cx="26.71" cy="20.38" r="1.85" fill="#c10034"/></g><g clip-path="url(#c)"><circle cx="26.71" cy="20.38" r="1.79" fill="#c00034"/></g><g clip-path="url(#c)"><circle cx="26.71" cy="20.38" r="1.72" fill="#bf0034"/></g><g clip-path="url(#c)"><circle cx="26.71" cy="20.38" r="1.66" fill="#be0034"/></g><g clip-path="url(#c)"><circle cx="26.71" cy="20.38" r="1.59" fill="#bd0034"/></g><g clip-path="url(#c)"><circle cx="26.71" cy="20.38" r="1.53" fill="#bc0034"/></g><g clip-path="url(#c)"><circle cx="26.71" cy="20.38" r="1.47" fill="#bb0034"/></g><g clip-path="url(#c)"><circle cx="26.71" cy="20.38" r="1.4" fill="#ba0034"/></g><g clip-path="url(#c)"><circle cx="26.71" cy="20.38" r="1.34" fill="#b90034"/></g><g clip-path="url(#c)"><circle cx="26.71" cy="20.38" r="1.28" fill="#b80034"/></g><g clip-path="url(#c)"><circle cx="26.71" cy="20.38" r="1.21" fill="#b70034"/></g><g clip-path="url(#c)"><circle cx="26.71" cy="20.38" r="1.15" fill="#b60034"/></g><g clip-path="url(#c)"><circle cx="26.71" cy="20.38" r="1.08" fill="#b50034"/></g><g clip-path="url(#c)"><circle cx="26.71" cy="20.38" r="1.02" fill="#b40034"/></g><g clip-path="url(#c)"><circle cx="26.71" cy="20.38" r="0.96" fill="#b30034"/></g><g clip-path="url(#c)"><circle cx="26.71" cy="20.38" r="0.89" fill="#b20034"/></g><g clip-path="url(#c)"><circle cx="26.71" cy="20.38" r="0.83" fill="#b10034"/></g><g clip-path="url(#c)"><circle cx="26.71" cy="20.38" r="0.77" fill="#b00034"/></g><g clip-path="url(#c)"><circle cx="26.71" cy="20.38" r="0.7" fill="#af0034"/></g><g clip-path="url(#c)"><circle cx="26.71" cy="20.38" r="0.64" fill="#ae0034"/></g><g clip-path="url(#c)"><circle cx="26.71" cy="20.38" r="0.57" fill="#ad0034"/></g><g clip-path="url(#c)"><circle cx="26.71" cy="20.38" r="0.51" fill="#ac0034"/></g><g clip-path="url(#c)"><circle cx="26.71" cy="20.38" r="0.45" fill="#ab0034"/></g><g clip-path="url(#c)"><circle cx="26.71" cy="20.38" r="0.38" fill="#aa0034"/></g><g clip-path="url(#c)"><circle cx="26.71" cy="20.38" r="0.32" fill="#a90034"/></g><g clip-path="url(#c)"><circle cx="26.71" cy="20.38" r="0.26" fill="#a80034"/></g><g clip-path="url(#c)"><circle cx="26.71" cy="20.38" r="0.19" fill="#a70034"/></g><g clip-path="url(#c)"><circle cx="26.71" cy="20.38" r="0.13" fill="#a60034"/></g><g clip-path="url(#c)"><circle cx="26.71" cy="20.38" r="0.06" fill="#a50034"/></g><path d="M33,46.27A6.24,6.24,0,1,1,39.25,40,6.25,6.25,0,0,1,33,46.27Z" transform="translate(-6.3 -19.65)" fill="url(#cp)"/><path d="M63.32,47.75H62.15v-3h1V22.65H15.39v1.22h-3V22.5a2.86,2.86,0,0,1,2.85-2.85H63.32a2.86,2.86,0,0,1,2.85,2.85V44.9A2.86,2.86,0,0,1,63.32,47.75Z" transform="translate(-6.3 -19.65)" fill="url(#cq)"/></svg>