<svg xmlns="http://www.w3.org/2000/svg" xmlns:xlink="http://www.w3.org/1999/xlink" width="26.08" height="46.6" viewBox="0 0 26.08 46.6"><defs><linearGradient id="a" x1="36.25" y1="62.54" x2="36.25" y2="21.41" gradientTransform="matrix(1, 0, 0, -1, 0, 74)" gradientUnits="userSpaceOnUse"><stop offset="0" stop-color="#a50034"/><stop offset="0.29" stop-color="#c90034"/><stop offset="0.57" stop-color="#e70034"/><stop offset="0.82" stop-color="#f90034"/><stop offset="1" stop-color="#ff0034"/></linearGradient><linearGradient id="b" x1="34.69" y1="62.54" x2="34.69" y2="21.41" xlink:href="#a"/></defs><path d="M38,47.39H30.55a1.5,1.5,0,0,1-1.47-1.21c0-.26-1.23-6.37,1.87-10.75a20.76,20.76,0,0,1,3.7-3.73c2.39-2,3.25-2.92,2.75-4.55A3,3,0,0,0,35.59,25C32.67,24,27.2,26.87,25.52,28a1.49,1.49,0,0,1-2.31-1.26V17.76a1.52,1.52,0,0,1,.61-1.21c.17-.12,4.22-3.06,11.62-3.06,8.93,0,13.85,4.28,13.85,12.06,0,7.3-3.23,9.85-6.36,12.32-.54.43-1.09.86-1.64,1.33-2.79,2.41-1.85,6.12-1.81,6.27a1.51,1.51,0,0,1-.26,1.3A1.47,1.47,0,0,1,38,47.39Zm-6.15-3H36.3a9,9,0,0,1,3-7.43c.58-.5,1.16-1,1.74-1.42,2.91-2.3,5.21-4.11,5.21-10,0-6.1-3.55-9.06-10.85-9.06a19.27,19.27,0,0,0-9.22,2.1v5.51c2.68-1.37,7.08-3.12,10.41-1.91a6,6,0,0,1,3.66,4.05C41.4,30,38.83,32.1,36.57,34a17.67,17.67,0,0,0-3.18,3.17C31.75,39.49,31.73,42.67,31.87,44.39Z" transform="translate(-23.21 -13.49)" fill="url(#a)"/><path d="M34.69,60.09a6,6,0,1,1,6-6A6,6,0,0,1,34.69,60.09Zm0-8.94a3,3,0,1,0,3,3A3,3,0,0,0,34.69,51.15Z" transform="translate(-23.21 -13.49)" fill="url(#b)"/></svg>