<svg xmlns="http://www.w3.org/2000/svg" xmlns:xlink="http://www.w3.org/1999/xlink" width="51.09" height="51.27" viewBox="0 0 51.09 51.27"><defs><linearGradient id="a" x1="36.1" y1="62.98" x2="36.1" y2="11.71" gradientTransform="matrix(1, 0, 0, -1, 0, 74)" gradientUnits="userSpaceOnUse"><stop offset="0" stop-color="#a50034"/><stop offset="0.29" stop-color="#c90034"/><stop offset="0.57" stop-color="#e70034"/><stop offset="0.82" stop-color="#f90034"/><stop offset="1" stop-color="#ff0034"/></linearGradient><linearGradient id="b" x1="-1720.05" y1="-1170.71" x2="-1738.14" y2="-1180.65" gradientTransform="matrix(0.48, -0.88, -0.88, -0.48, -175.36, -2047.16)" gradientUnits="userSpaceOnUse"><stop offset="0" stop-color="#a50034"/><stop offset="0.17" stop-color="#c30034"/><stop offset="0.37" stop-color="#dd0034"/><stop offset="0.57" stop-color="#f00034"/><stop offset="0.78" stop-color="#fb0034"/><stop offset="1" stop-color="#ff0034"/></linearGradient></defs><path d="M60.77,56.2,48.4,43.82A20.76,20.76,0,1,0,43.16,49l12.4,12.4a3,3,0,0,0,4.21,0l1-1A3,3,0,0,0,60.77,56.2ZM15.05,31.85A16.33,16.33,0,1,1,31.37,48.18,16.35,16.35,0,0,1,15.05,31.85Z" transform="translate(-10.55 -11.02)" fill="url(#a)"/><path d="M20.55,25.79a12.72,12.72,0,0,0,5,17.26" transform="translate(-10.55 -11.02)" fill="none" stroke-linecap="round" stroke-miterlimit="10" stroke-width="3.38" stroke="url(#b)"/></svg>