<svg xmlns="http://www.w3.org/2000/svg" xmlns:xlink="http://www.w3.org/1999/xlink" width="36.2" height="52.22" viewBox="0 0 36.2 52.22"><defs><linearGradient id="a" x1="36.24" y1="65.71" x2="36.24" y2="10.22" gradientTransform="matrix(1, 0, 0, -1, 0, 74)" gradientUnits="userSpaceOnUse"><stop offset="0" stop-color="#a50034"/><stop offset="0.12" stop-color="#b80034"/><stop offset="0.36" stop-color="#d70034"/><stop offset="0.58" stop-color="#ed0034"/><stop offset="0.8" stop-color="#fa0034"/><stop offset="1" stop-color="#ff0034"/></linearGradient><linearGradient id="b" x1="36.23" y1="65.71" x2="36.23" y2="10.22" gradientTransform="matrix(1, 0, 0, -1, 0, 74)" gradientUnits="userSpaceOnUse"><stop offset="0" stop-color="#fc0034"/><stop offset="0.08" stop-color="#fd0034"/><stop offset="1" stop-color="#ff0034"/></linearGradient><linearGradient id="c" x1="36.23" y1="65.71" x2="36.23" y2="10.22" gradientTransform="matrix(1, 0, 0, -1, 0, 74)" gradientUnits="userSpaceOnUse"><stop offset="0" stop-color="#ff0134"/><stop offset="1" stop-color="#ff0034"/></linearGradient><linearGradient id="d" x1="36.24" y1="65.71" x2="36.24" y2="10.22" gradientTransform="matrix(1, 0, 0, -1, 0, 74)" gradientUnits="userSpaceOnUse"><stop offset="0" stop-color="#a50034"/><stop offset="0.22" stop-color="#c00034"/><stop offset="0.55" stop-color="#e20034"/><stop offset="0.82" stop-color="#f70034"/><stop offset="1" stop-color="#ff0034"/></linearGradient><linearGradient id="e" x1="36.24" y1="65.71" x2="36.24" y2="10.22" gradientTransform="matrix(1, 0, 0, -1, -18.14, 63.2)" gradientUnits="userSpaceOnUse"><stop offset="0" stop-color="#a50034"/><stop offset="1" stop-color="#ff0034"/></linearGradient></defs><path d="M48.69,15.77a18,18,0,0,0-13.44-4.94A18.3,18.3,0,0,0,18.14,28.91,18,18,0,0,0,23.71,42a8.23,8.23,0,0,1,2.35,4l1,4.37a3,3,0,0,0,2.95,2.33h12.5a3,3,0,0,0,3-2.33l1.11-4.65a7.87,7.87,0,0,1,2.22-3.76,18.1,18.1,0,0,0-.14-26.14ZM46.51,39.52a11.08,11.08,0,0,0-3.14,5.38l-1.06,4.42h-12l-1-4.14A11.49,11.49,0,0,0,26,39.57a14.65,14.65,0,0,1-4.55-10.66,14.93,14.93,0,0,1,14-14.75A14.77,14.77,0,0,1,46.51,39.52Z" transform="translate(-18.14 -10.8)" fill="url(#a)"/><path d="M42.63,54.87H29.83a1.59,1.59,0,0,0-1.59,1.59h0a1.59,1.59,0,0,0,1.59,1.59h12.8a1.59,1.59,0,0,0,1.59-1.59h0A1.59,1.59,0,0,0,42.63,54.87Z" transform="translate(-18.14 -10.8)" fill="url(#b)"/><path d="M40.63,59.84h-8.8a1.59,1.59,0,0,0-1.59,1.59h0A1.59,1.59,0,0,0,31.83,63h8.8a1.59,1.59,0,0,0,1.59-1.59h0A1.59,1.59,0,0,0,40.63,59.84Z" transform="translate(-18.14 -10.8)" fill="url(#c)"/><path d="M36.24,20.14h0c1.95,0,3.35,1.58,3.35,2.6L38.09,35.6a1.85,1.85,0,0,1-1.85,1.85h0a1.85,1.85,0,0,1-1.85-1.85L32.9,22.74C32.89,21.72,34.27,20.14,36.24,20.14Z" transform="translate(-18.14 -10.8)" fill="url(#d)"/><circle cx="18.1" cy="30.69" r="1.86" fill="url(#e)"/></svg>