<svg xmlns="http://www.w3.org/2000/svg" width="30.37" height="30.76" viewBox="0 0 30.37 30.76"><ellipse cx="13.89" cy="10.03" rx="6.95" ry="6.91" fill="#757575"/><path d="M28.17,14.55a12,12,0,0,0,0-7.42H25.68A.8.8,0,0,1,25,6.7a8.65,8.65,0,0,0-1.7-2.33.8.8,0,0,1,0-1.13l2-2a.8.8,0,0,1,1.13,0,13.48,13.48,0,0,1,0,19.13.8.8,0,0,1-1.13,0l-2-2a.79.79,0,0,1,0-1.12A9.39,9.39,0,0,0,25,15a.8.8,0,0,1,.71-.44Z" transform="translate(0 -1.04)" fill="#757575" fill-rule="evenodd"/><path d="M13.89,21.44C9.26,21.44,0,23.76,0,28.35v3.46H27.79V28.35C27.79,23.76,18.53,21.44,13.89,21.44Z" transform="translate(0 -1.04)" fill="#757575" fill-rule="evenodd"/></svg>