<svg xmlns="http://www.w3.org/2000/svg" xmlns:xlink="http://www.w3.org/1999/xlink" width="60.56" height="53.52" viewBox="0 0 60.56 53.52"><defs><linearGradient id="a" x1="48.99" y1="64.61" x2="48.99" y2="10.29" gradientTransform="matrix(1, 0, 0, -1, 0, 74)" gradientUnits="userSpaceOnUse"><stop offset="0" stop-color="#a50034"/><stop offset="1" stop-color="#ff0034"/></linearGradient><linearGradient id="b" x1="54.11" y1="64.61" x2="54.11" y2="10.29" xlink:href="#a"/><linearGradient id="c" x1="46.24" y1="64.61" x2="46.24" y2="10.29" xlink:href="#a"/><linearGradient id="d" x1="23.47" y1="64.61" x2="23.47" y2="10.29" xlink:href="#a"/><linearGradient id="e" x1="18.37" y1="64.61" x2="18.37" y2="10.29" xlink:href="#a"/><linearGradient id="f" x1="26.24" y1="64.61" x2="26.24" y2="10.29" xlink:href="#a"/></defs><path d="M54.87,63.64a1.5,1.5,0,0,1-.5-2.92L58,59.41,52.76,44.7,52,45a1.53,1.53,0,0,1-1.15-.06l-7.7-3.65a1.54,1.54,0,0,1-.82-1l-5.77-24.6a1.5,1.5,0,0,1,1-1.75l5.14-1.83a1.5,1.5,0,0,1,1,2.83l-3.87,1.38,5.3,22.59,6.48,3.07,1.55-.56a1.53,1.53,0,0,1,1.15.06,1.5,1.5,0,0,1,.77.85l6.26,17.55A1.53,1.53,0,0,1,61.28,61a1.5,1.5,0,0,1-.85.77l-5.07,1.81A1.67,1.67,0,0,1,54.87,63.64Z" transform="translate(-5.96 -10.12)" fill="url(#a)"/><path d="M59.94,61.83a1.49,1.49,0,0,1-1.41-1L52.27,43.28a1.53,1.53,0,0,1,.06-1.15,1.5,1.5,0,0,1,.85-.77l1.55-.56,3.07-6.48L47.59,13.49l-3.88,1.38a1.5,1.5,0,1,1-1-2.83l5.14-1.83a1.5,1.5,0,0,1,1.85.75L60.81,33.65a1.52,1.52,0,0,1,0,1.3l-3.65,7.7a1.5,1.5,0,0,1-.85.77l-.73.26L60.85,58.4l3.66-1.31a1.5,1.5,0,0,1,1,2.83l-5.07,1.81A1.36,1.36,0,0,1,59.94,61.83Z" transform="translate(-5.96 -10.12)" fill="url(#b)"/><path d="M40.78,24.18a1.5,1.5,0,0,1-.5-2.92c3.22-1.15,4.66-.92,6.2-.51,1,.27,1.9.51,4.71-.49a1.5,1.5,0,1,1,1,2.83c-3.41,1.22-4.9,1-6.49.56-1-.26-1.82-.49-4.42.44A1.52,1.52,0,0,1,40.78,24.18Z" transform="translate(-5.96 -10.12)" fill="url(#c)"/><path d="M17.6,63.64a1.43,1.43,0,0,1-.5-.09L12,61.74a1.5,1.5,0,0,1-.91-1.92l6.26-17.55a1.5,1.5,0,0,1,.77-.85,1.53,1.53,0,0,1,1.15-.06l1.55.56,6.48-3.07,5.3-22.59-3.87-1.38a1.5,1.5,0,0,1,1-2.83l5.14,1.83a1.5,1.5,0,0,1,1,1.75L30.1,40.23a1.49,1.49,0,0,1-.82,1l-7.69,3.65a1.53,1.53,0,0,1-1.15.06l-.74-.25L14.44,59.42l3.66,1.31A1.5,1.5,0,0,1,19,62.65,1.48,1.48,0,0,1,17.6,63.64Z" transform="translate(-5.96 -10.12)" fill="url(#d)"/><path d="M12.53,61.83a1.43,1.43,0,0,1-.5-.09L7,59.93A1.5,1.5,0,1,1,8,57.1l3.66,1.31,5.26-14.72-.73-.26a1.47,1.47,0,0,1-.85-.77L11.66,35a1.48,1.48,0,0,1,0-1.3L22.79,11a1.49,1.49,0,0,1,1.85-.75l5.14,1.83a1.5,1.5,0,1,1-1,2.83L24.9,13.5,14.67,34.33l3.07,6.48,1.55.56a1.47,1.47,0,0,1,.85.77,1.53,1.53,0,0,1,.06,1.15L13.94,60.84a1.5,1.5,0,0,1-.77.85A1.57,1.57,0,0,1,12.53,61.83Z" transform="translate(-5.96 -10.12)" fill="url(#e)"/><path d="M31.69,24.18a1.43,1.43,0,0,1-.5-.09c-2.59-.93-3.44-.7-4.42-.44-1.59.43-3.08.66-6.49-.56a1.5,1.5,0,0,1,1-2.83c2.81,1,3.69.77,4.7.49,1.55-.42,3-.64,6.2.51a1.5,1.5,0,0,1-.5,2.92Z" transform="translate(-5.96 -10.12)" fill="url(#f)"/></svg>