<svg xmlns="http://www.w3.org/2000/svg" xmlns:xlink="http://www.w3.org/1999/xlink" width="48.63" height="35.93" viewBox="0 0 48.63 35.93"><defs><linearGradient id="a" x1="35.17" y1="56.76" x2="35.17" y2="17.99" gradientTransform="matrix(1, 0, 0, -1, 0, 74)" gradientUnits="userSpaceOnUse"><stop offset="0" stop-color="#a50034"/><stop offset="1" stop-color="#ff0034"/></linearGradient><linearGradient id="b" x1="36.17" y1="56.76" x2="36.17" y2="17.99" xlink:href="#a"/><linearGradient id="c" x1="59.09" y1="56.76" x2="59.09" y2="17.99" xlink:href="#a"/></defs><path d="M35.18,48.28c-2.85,0-12.46-.32-16.58-4.43a2.5,2.5,0,0,1-.67-2.32l2.23-7.94a1.5,1.5,0,0,1,2.89.81l-2.12,7.52c2.3,2,7.82,3.35,14.24,3.35,4.88,0,11.46-.89,14.24-3.38L47.24,34.7a1.5,1.5,0,0,1,2.87-.87l2.27,7.54,0,.1a2.55,2.55,0,0,1-.66,2.34C47.62,48,38,48.28,35.18,48.28Z" transform="translate(-11.96 -18.84)" fill="url(#a)"/><path d="M35.18,33.69a3.43,3.43,0,0,1-.86-.11L14.59,28.65a3.48,3.48,0,0,1,.33-6.81l19.76-3a3.58,3.58,0,0,1,1,0l21.73,3a3.48,3.48,0,0,1,.3,6.84L36,33.61A3.56,3.56,0,0,1,35.18,33.69Zm-.07-11.84-19.75,3a.49.49,0,0,0-.41.45.47.47,0,0,0,.36.48l19.87,5h.12L57,25.74a.47.47,0,0,0,0-.93h0l-21.73-3Z" transform="translate(-11.96 -18.84)" fill="url(#b)"/><path d="M59.09,47.64a1.5,1.5,0,0,1-1.5-1.5V31.89a1.5,1.5,0,0,1,3,0V46.14A1.5,1.5,0,0,1,59.09,47.64Z" transform="translate(-11.96 -18.84)" fill="url(#c)"/><path d="M59.09,54.77a1.5,1.5,0,0,1-1.5-1.5v-2a1.5,1.5,0,0,1,3,0v2A1.5,1.5,0,0,1,59.09,54.77Z" transform="translate(-11.96 -18.84)" fill="url(#c)"/></svg>