<?xml version="1.0" encoding="utf-8"?>
<!-- Generator: Adobe Illustrator 28.0.0, SVG Export Plug-In . SVG Version: 6.00 Build 0)  -->
<svg version="1.1" id="Layer_1" xmlns="http://www.w3.org/2000/svg" xmlns:xlink="http://www.w3.org/1999/xlink" x="0px" y="0px"
	 viewBox="0 0 20 20" style="enable-background:new 0 0 20 20;" xml:space="preserve">
<style type="text/css">
	.st0{fill:#244E26;}
</style>
<g id="_x35_7x7ss.tif">
	<g>
		<path class="st0" d="M14.95,13.33c-0.07-0.04-0.15-0.07-0.2-0.13c-0.16-0.15-0.17-0.41-0.02-0.57c0.24-0.25,0.5-0.48,0.76-0.72
			c0.37-0.33,0.74-0.66,1.11-0.99c0.06-0.05,0.12-0.1,0.19-0.17c-0.08-0.01-0.14-0.03-0.19-0.03c-0.56-0.01-1.13-0.03-1.69-0.04
			c-0.71-0.01-1.42-0.03-2.14-0.03c-1.69-0.01-3.38-0.01-5.08-0.01c-0.41,0-0.82,0.01-1.24,0.02c-0.52,0.01-1.04,0.03-1.56,0.05
			c-0.47,0.02-0.94,0.04-1.41,0.05c-0.52,0.01-1.03,0.03-1.55,0.03c-0.37,0-0.74-0.04-1.12-0.06c-0.15-0.01-0.26-0.08-0.32-0.22
			c0-0.06,0-0.11,0-0.17c0.09-0.2,0.29-0.23,0.47-0.25c0.79-0.1,1.59-0.13,2.38-0.13c0.42,0,0.84-0.01,1.26-0.02
			c0.51-0.01,1.03-0.02,1.54-0.03C6.65,9.9,7.13,9.88,7.62,9.86c0.42-0.02,0.84-0.03,1.25-0.05c0.51-0.02,1.02-0.04,1.53-0.07
			c0.46-0.02,0.91-0.04,1.37-0.07c0.57-0.03,1.14-0.07,1.7-0.1c0.5-0.03,1-0.06,1.5-0.1c0.55-0.04,1.11-0.09,1.66-0.13
			c0.09-0.01,0.18-0.02,0.27-0.03c0-0.01,0-0.02,0.01-0.02c-0.05-0.04-0.11-0.08-0.16-0.12c-0.38-0.25-0.76-0.5-1.13-0.76
			c-0.2-0.14-0.39-0.3-0.51-0.52c-0.15-0.28-0.15-0.57,0.02-0.84c0.16-0.27,0.41-0.41,0.73-0.38c0.26,0.02,0.49,0.14,0.69,0.3
			c0.82,0.65,1.64,1.3,2.46,1.95c0.11,0.09,0.22,0.2,0.31,0.3c0.31,0.34,0.2,0.89-0.21,1.09c-0.04,0.02-0.09,0.05-0.11,0.09
			c-0.16,0.25-0.4,0.41-0.64,0.58c-0.77,0.55-1.54,1.11-2.31,1.67c-0.21,0.15-0.41,0.33-0.62,0.49c-0.09,0.07-0.2,0.12-0.3,0.19
			C15.08,13.33,15.01,13.33,14.95,13.33z"/>
	</g>
</g>
</svg>
