<?xml version="1.0" encoding="utf-8"?>
<!-- Generator: Adobe Illustrator 28.0.0, SVG Export Plug-In . SVG Version: 6.00 Build 0)  -->
<svg version="1.1" id="Layer_1" xmlns="http://www.w3.org/2000/svg" xmlns:xlink="http://www.w3.org/1999/xlink" x="0px" y="0px"
	 viewBox="0 0 1080 1080" style="enable-background:new 0 0 1080 1080;" xml:space="preserve">
<style type="text/css">
	.st0{fill:#234E25;}
</style>
<g>
	<path class="st0" d="M917.08,308.74c-44.81-63.97-109.41-119.4-192-164.76c-77.75-42.7-169.9-75.67-273.89-98.01
		C349.67,24.18,239.82,13.12,124.7,13.12H90v1053.76h34.7c230.7,0,444.01-48.33,600.64-136.1
		c82.22-46.07,146.7-101.62,191.64-165.11C965.43,697.24,990,621.31,990,540C990,455.62,965.47,377.81,917.08,308.74z
		 M691.41,870.23c-16.28,9.12-33.25,17.78-50.83,25.98V694.56l124.5,127.65C742.76,839.2,718.19,855.23,691.41,870.23z
		 M640.58,501.44V357.32c42.91,4.1,79.09,16,105.92,35.02c28.24,20.03,43.17,46.14,43.17,75.52s-14.93,55.5-43.17,75.52
		c-26.82,19.02-63.01,30.92-105.92,35.01V501.44z M860.33,725.58c-12.48,17.63-26.8,34.6-42.91,50.88L685.97,641.68
		c38.82-7.96,72.9-21.99,100.68-41.68c46.71-33.12,72.44-80.05,72.44-132.14c0-52.09-25.72-99.02-72.44-132.14
		c-45.58-32.32-108.09-49.4-180.77-49.4h-34.7v215.13V649.4v275.59c-119.39,43.81-260.81,68.78-411.76,72.1V82.88
		c208.23,4.29,396.17,47.21,532.26,121.94c73.19,40.19,129.9,88.55,168.56,143.74c40.05,57.17,60.36,121.58,60.36,191.43
		C920.59,606.66,900.32,669.09,860.33,725.58z"/>
	<path class="st0" d="M560.48,346.5c0-64.65-32.09-123.01-90.35-164.33c-57.88-41.04-137.61-62.73-230.58-62.73h-34.7v387v67.12v387
		h34.7c92.96,0,172.7-21.69,230.58-62.73c58.26-41.31,90.35-99.67,90.35-164.32s-32.09-123.01-90.35-164.33
		c-15.77-11.18-33.17-20.91-52-29.17c18.84-8.26,36.24-17.99,52-29.17C528.4,469.51,560.48,411.15,560.48,346.5z M491.07,733.5
		c0,42.12-21.13,79.37-61.09,107.71c-39.12,27.74-92.47,44.37-155.73,48.77V577.03c63.25,4.39,116.61,21.03,155.73,48.77
		C469.95,654.13,491.07,691.38,491.07,733.5z M429.98,454.21c-39.12,27.74-92.47,44.37-155.73,48.77V190.03
		c63.25,4.4,116.61,21.03,155.73,48.77c39.97,28.34,61.09,65.58,61.09,107.71S469.95,425.87,429.98,454.21z"/>
</g>
</svg>
